<svg width="492" height="493" viewBox="0 0 492 493" fill="none" xmlns="http://www.w3.org/2000/svg">
<g clip-path="url(#clip0_7_2)">
<path d="M120.427 113.251C99.5069 113.251 82.4612 96.346 82.4612 75.3532C82.4612 54.4709 99.3962 37.4556 120.427 37.4556C141.346 37.4556 158.392 54.3604 158.392 75.3532C158.392 96.2355 141.346 113.251 120.427 113.251Z" fill="#EBEBEB"/>
<path d="M111.129 66.9561H103.27V92.258H111.129V66.9561Z" fill="white"/>
<path d="M107.144 63.6414C109.712 63.6414 111.793 61.5638 111.793 59.0009C111.793 56.438 109.712 54.3604 107.144 54.3604C104.577 54.3604 102.495 56.438 102.495 59.0009C102.495 61.5638 104.577 63.6414 107.144 63.6414Z" fill="white"/>
<path d="M123.636 78.9993C123.636 75.4637 125.297 73.3644 128.396 73.3644C131.274 73.3644 132.713 75.3532 132.713 78.9993C132.713 82.6454 132.713 92.2579 132.713 92.2579H140.571C140.571 92.2579 140.571 82.9769 140.571 76.2371C140.571 69.4973 136.697 66.1826 131.384 66.1826C125.961 66.1826 123.747 70.3812 123.747 70.3812V66.9561H116.22V92.2579H123.747C123.636 92.2579 123.636 82.8664 123.636 78.9993Z" fill="white"/>
<path d="M171.231 0L176.434 9.50202L185.953 14.695L176.434 19.8879L171.231 29.2795L166.029 19.8879L156.51 14.695L166.029 9.50202L171.231 0Z" fill="#F5F5F5"/>
<path d="M387.844 256.775L391.718 263.847L398.802 267.714L391.718 271.691L387.844 278.763L383.86 271.691L376.776 267.714L383.86 263.847L387.844 256.775Z" fill="#EBEBEB"/>
<path d="M398.802 221.64L400.573 224.844L403.783 226.612L400.573 228.38L398.802 231.584L397.031 228.38L393.821 226.612L397.031 224.844L398.802 221.64Z" fill="#E0E0E0"/>
<path d="M134.152 3.53564L135.923 6.73981L139.133 8.50763L135.923 10.2754L134.152 13.4796L132.381 10.2754L129.171 8.50763L132.381 6.73981L134.152 3.53564Z" fill="#E0E0E0"/>
<path d="M46.0454 301.523C50.0301 299.755 52.7973 295.667 52.7973 290.806C52.6866 284.508 47.9271 279.426 41.9501 279.426C35.973 279.426 31.2135 284.619 31.3242 291.027C31.3242 295.888 34.3127 299.976 38.2974 301.634C21.8052 304.286 22.8013 322.295 22.8013 322.295L61.9843 321.964C61.8736 321.964 62.5377 303.733 46.0454 301.523Z" fill="#E0E0E0"/>
<path d="M421.825 419.967C421.272 417.205 418.504 414.995 415.627 415.106C412.749 415.216 410.203 417.536 409.76 420.409C409.317 417.647 406.772 415.216 403.894 415.216C401.016 415.106 398.249 417.315 397.695 420.188C397.363 422.287 398.027 424.387 399.134 426.154C400.241 427.922 401.901 429.248 403.451 430.684C405.665 432.673 407.657 434.441 409.871 436.43C412.085 434.441 413.856 432.673 416.069 430.684C417.619 429.248 419.169 427.812 420.275 426.154C421.604 424.055 422.268 421.956 421.825 419.967Z" fill="#EBEBEB"/>
<path d="M447.393 187.057L451.6 186.173L458.241 171.589L456.58 163.192C456.58 163.192 463 161.534 464.439 172.583C465.878 183.742 466.099 180.759 466.099 180.759C466.099 180.759 479.935 178.108 481.263 179.102C482.26 179.765 485.359 193.355 487.019 200.758C487.794 204.514 486.244 208.381 482.924 209.928C482.481 210.149 481.928 210.37 481.485 210.37C478.054 211.033 459.901 211.696 459.901 211.696L452.596 213.132L447.393 187.057Z" fill="#E0E0E0"/>
<path d="M434.886 187.057L443.187 215.232L450.382 213.795L444.737 185.731L434.886 187.057Z" fill="#E0E0E0"/>
<path d="M490.34 492.116C490.34 492.227 380.539 492.448 245.17 492.448C109.69 492.448 0 492.337 0 492.116C0 492.006 109.69 491.785 245.17 491.785C380.539 491.895 490.34 492.006 490.34 492.116Z" fill="#263238"/>
<path d="M405.001 176.008C382.642 186.836 355.745 177.555 344.898 155.236C334.051 132.918 343.348 106.069 365.707 95.2412C388.066 84.4133 414.962 93.6943 425.81 116.013C436.657 138.221 427.359 165.07 405.001 176.008Z" fill="#55BC7E"/>
<path d="M374.23 145.624C375.005 145.624 375.447 145.072 375.226 144.298C375.115 143.746 374.783 142.42 374.673 141.867C374.562 141.094 374.341 140.873 373.566 140.541C371.795 139.768 370.245 138.442 369.138 136.011C365.707 129.051 367.921 120.322 376.333 116.234C383.749 112.588 390.058 115.129 392.936 121.206C396.81 129.161 396.589 137.558 391.276 140.1C388.398 141.536 385.077 140.21 384.302 136.895C383.417 133.028 383.196 128.498 381.978 125.957C380.871 123.747 378.768 122.421 376.222 123.637C373.234 125.073 372.348 129.272 374.341 133.36C375.558 136.011 377.329 137.337 377.329 137.337C377.329 137.337 380.539 151.59 381.092 154.021C382.199 158.993 385.741 163.965 386.073 164.517C386.295 164.849 386.737 164.738 386.848 164.407C386.959 163.965 388.398 157.888 387.402 153.027C387.18 151.59 385.631 144.519 385.631 144.519C387.512 145.845 391.054 146.176 394.043 144.63C402.898 140.32 405.001 129.382 399.688 118.554C395.703 110.378 385.077 106.18 374.562 111.262C361.501 117.67 359.398 130.266 363.272 138C365.818 142.641 369.581 145.955 374.23 145.624Z" fill="white"/>
<path d="M449.939 302.628C433.89 296.551 425.92 278.652 432.008 262.631C438.096 246.61 456.027 238.655 472.076 244.732C488.126 250.809 496.095 268.708 490.008 284.729C483.92 300.75 465.989 308.705 449.939 302.628Z" fill="#55BC7E"/>
<path fill-rule="evenodd" clip-rule="evenodd" d="M477.168 278.873C480.157 270.476 475.84 261.084 467.317 257.88C458.905 254.676 449.607 258.654 446.065 266.719C445.955 266.94 445.844 267.161 445.844 267.382C444.737 270.255 444.516 273.349 445.069 276.221L439.092 283.403L448.832 283.956C450.603 286.055 452.928 287.712 455.584 288.707C464.218 292.021 473.847 287.712 477.057 279.205C477.168 279.205 477.168 279.094 477.168 278.873ZM456.47 286.386C453.813 285.392 451.6 283.624 450.05 281.525L444.405 281.193L447.836 276.995C447.061 274.233 447.172 271.249 448.279 268.377C448.39 267.935 448.611 267.493 448.832 267.161C452.042 260.864 459.569 257.77 466.431 260.422C473.294 263.073 476.947 270.476 474.954 277.437C474.844 277.768 474.733 278.1 474.622 278.431C471.855 285.502 463.775 289.149 456.47 286.386Z" fill="white"/>
<path fill-rule="evenodd" clip-rule="evenodd" d="M467.428 279.205C467.096 278.873 465.546 277.216 465.325 276.995C464.993 276.774 464.771 276.553 464.439 276.884C463.996 277.216 463 277.768 462.668 277.879C462.336 278.1 462.115 277.989 461.783 277.658C461.451 277.326 460.344 276.442 459.458 274.564C458.683 273.128 458.462 271.581 458.351 271.139C458.241 270.697 458.573 270.586 458.794 270.476C459.016 270.366 459.348 270.145 459.68 270.034C459.79 270.034 459.79 269.924 459.901 269.924C460.012 269.813 460.122 269.703 460.344 269.592C460.565 269.371 460.565 269.15 460.565 268.929C460.565 268.708 460.454 266.498 460.454 265.614C460.454 264.731 460.012 264.731 459.79 264.62C459.569 264.51 459.348 264.399 459.126 264.289C458.905 264.178 458.462 264.178 457.909 264.399C457.466 264.62 456.027 265.173 455.363 267.051C455.141 267.493 455.142 267.935 455.031 268.377C454.92 269.813 455.363 271.249 455.363 271.47C455.474 271.802 456.359 276.663 459.68 279.647C463 282.63 463.222 282.188 463.886 282.298C464.661 282.519 466.542 282.298 467.206 281.525C467.87 280.751 468.202 279.978 468.092 279.757C467.981 279.757 467.76 279.536 467.428 279.205Z" fill="white"/>
<path d="M46.5989 159.545C33.5379 159.545 22.912 148.939 22.912 135.901C22.912 122.863 33.5379 112.256 46.5989 112.256C59.6598 112.256 70.2857 122.863 70.2857 135.901C70.2857 148.939 59.6598 159.545 46.5989 159.545Z" fill="#55BC7E"/>
<path d="M33.9807 143.746C36.3051 145.182 38.9615 146.066 41.9501 146.066C51.5798 146.066 57.0034 138 56.6713 130.708C57.6675 129.935 58.553 129.051 59.2171 128.056C58.3316 128.498 57.3354 128.719 56.2286 128.83C57.3354 128.167 58.1102 127.172 58.553 125.957C57.5568 126.509 56.4499 126.951 55.2324 127.172C54.2362 126.178 52.908 125.515 51.4691 125.515C48.1485 125.515 45.7134 128.609 46.3775 131.813C42.0607 131.592 38.2974 129.493 35.7516 126.399C34.4234 128.719 35.0875 131.702 37.3012 133.249C36.4157 133.249 35.6409 133.028 34.9768 132.586C34.8661 135.017 36.6371 137.227 39.0722 137.669C38.2974 137.89 37.5226 137.89 36.7478 137.779C37.4119 139.879 39.2936 141.315 41.618 141.315C39.515 143.304 36.7478 144.077 33.9807 143.746Z" fill="white"/>
<path d="M89.1024 423.945C67.1865 429.138 45.2706 415.658 40.0684 393.781C34.8661 371.905 48.3699 350.028 70.2857 344.835C92.2016 339.642 114.117 353.121 119.32 374.998C124.522 396.875 111.018 418.752 89.1024 423.945Z" fill="#455A64"/>
<path d="M75.488 366.601C81.2436 365.275 82.0184 365.054 84.3429 364.612C86.4459 364.17 87.7741 364.281 88.5489 364.391C89.6558 364.502 90.5413 364.833 91.4268 365.386C92.4229 365.938 92.9764 366.601 93.6405 367.485C94.0832 368.148 94.7474 369.253 95.3008 371.352C95.9649 373.562 96.1863 374.335 97.5145 380.081C98.8427 385.826 99.0641 386.599 99.5069 388.92C99.9496 391.019 99.8389 392.345 99.7282 393.118C99.6175 394.223 99.2855 395.107 98.7321 395.991C98.1786 396.985 97.5145 397.538 96.629 398.201C95.9649 398.643 94.858 399.306 92.755 399.858C90.5413 400.521 89.7665 400.742 84.0108 402.068C78.2551 403.394 77.4803 403.615 75.1559 404.057C73.0529 404.499 71.7246 404.388 70.9498 404.278C69.843 404.167 68.9575 403.836 68.072 403.283C67.0758 402.731 66.5224 402.068 65.8583 401.184C65.4155 400.521 64.7514 399.416 64.198 397.317C63.5339 395.107 63.3125 394.334 61.9843 388.588C60.656 382.843 60.4346 382.069 59.9919 379.749C59.5492 377.65 59.6598 376.324 59.7705 375.551C59.8812 374.446 60.2133 373.562 60.7667 372.678C61.3201 371.684 61.9843 371.131 62.8697 370.468C63.5339 370.026 64.6407 369.363 66.7438 368.811C68.9575 368.148 69.6216 368.037 75.488 366.601ZM74.4918 362.734C68.6254 364.17 67.8506 364.391 65.5262 364.944C63.2018 365.607 61.7629 366.38 60.5453 367.153C59.2171 368.037 58.2209 369.032 57.3354 370.579C56.4499 372.125 56.0072 373.451 55.7858 374.998C55.5645 376.545 55.5645 378.202 56.0072 380.523C56.4499 382.843 56.5606 383.616 57.9996 389.472C59.4385 395.328 59.6598 396.102 60.2133 398.422C60.8774 400.742 61.6522 402.178 62.427 403.394C63.3125 404.72 64.3087 405.714 65.8583 406.598C67.4079 407.482 68.7361 407.924 70.2857 408.145C71.8353 408.366 73.4956 408.366 75.82 407.924C78.1444 407.482 78.9192 407.371 84.7856 405.935C90.652 404.499 91.4268 404.278 93.7512 403.725C96.0756 403.062 97.5145 402.289 98.7321 401.515C100.06 400.632 101.056 399.637 101.942 398.09C102.827 396.543 103.27 395.218 103.492 393.671C103.713 392.124 103.713 390.467 103.27 388.146C102.827 385.826 102.717 385.053 101.278 379.197C99.8389 373.341 99.6175 372.567 99.0641 370.247C98.4 367.927 97.6252 366.491 96.8504 365.275C95.9649 363.949 94.9687 362.955 93.4191 362.071C91.8695 361.187 90.5413 360.745 88.9917 360.524C87.4421 360.303 85.7818 360.303 83.4574 360.745C81.133 361.187 80.4688 361.298 74.4918 362.734Z" fill="white"/>
<path d="M77.0376 373.23C70.8391 374.667 67.0758 380.854 68.5147 387.041C69.9537 393.229 76.1521 396.985 82.3505 395.549C88.5489 394.113 92.3123 387.925 90.8733 381.738C89.4344 375.661 83.236 371.794 77.0376 373.23ZM81.465 391.682C77.4803 392.676 73.4956 390.135 72.4994 386.158C71.5033 382.18 74.049 378.202 78.0337 377.208C82.0184 376.214 86.0031 378.755 86.9993 382.732C87.8848 386.71 85.4497 390.688 81.465 391.682Z" fill="white"/>
<path d="M91.0947 369.474C91.4268 370.91 90.5413 372.346 89.1024 372.678C87.6634 373.009 86.2245 372.125 85.8925 370.689C85.5604 369.253 86.4459 367.816 87.8848 367.485C89.3237 367.153 90.7627 368.037 91.0947 369.474Z" fill="white"/>
<path d="M397.695 388.146C387.18 388.146 378.657 379.639 378.657 369.142C378.657 358.646 387.18 350.138 397.695 350.138C408.211 350.138 416.733 358.646 416.733 369.142C416.733 379.749 408.211 388.146 397.695 388.146Z" fill="#455A64"/>
<path d="M394.818 380.633H399.466V369.032H402.676L403.008 365.165H399.466C399.466 365.165 399.466 363.728 399.466 362.955C399.466 362.071 399.688 361.629 400.573 361.629C401.237 361.629 403.119 361.629 403.119 361.629V357.652C403.119 357.652 400.463 357.652 399.909 357.652C396.478 357.652 394.928 359.198 394.928 362.071C394.928 364.612 394.928 365.165 394.928 365.165H392.493V369.032H394.928V380.633H394.818Z" fill="white"/>
<path d="M332.944 493L180.308 492.889C161.934 492.889 147.102 477.974 147.102 459.743L147.213 77.784C147.213 59.4429 162.155 44.6374 180.529 44.6374L333.165 44.7479C351.539 44.7479 366.371 59.6638 366.371 77.8944L366.261 459.853C366.15 478.084 351.318 493 332.944 493Z" fill="#263238"/>
<path d="M332.833 58.117H303.28C299.295 58.117 296.085 61.4317 296.085 65.6302V70.9337C296.085 75.0218 292.876 78.4469 288.891 78.4469H231.223C227.239 78.4469 224.029 75.1322 224.029 70.9337V65.6302C224.029 61.5422 220.819 58.117 216.834 58.117H206.43H180.529C167.69 58.117 157.285 68.5029 157.285 81.3196L157.174 454.108C157.174 466.925 167.579 477.311 180.418 477.311L332.723 477.421C345.562 477.421 355.967 467.035 355.967 454.219L356.077 81.4301C356.077 68.6134 345.673 58.117 332.833 58.117Z" fill="white"/>
<path d="M326.537 88.7262C331.305 88.6869 335.17 88.556 335.169 88.434C335.168 88.3119 331.302 88.2449 326.534 88.2843C321.765 88.3236 317.901 88.4544 317.902 88.5765C317.903 88.6985 321.769 88.7656 326.537 88.7262Z" fill="#263238"/>
<path d="M326.537 93.1462C331.305 93.1069 335.17 92.9761 335.169 92.854C335.168 92.732 331.302 92.6649 326.534 92.7042C321.765 92.7435 317.901 92.8744 317.902 92.9964C317.903 93.1184 321.769 93.1855 326.537 93.1462Z" fill="#263238"/>
<path d="M326.538 97.5662C331.306 97.5268 335.17 97.396 335.169 97.274C335.168 97.1519 331.302 97.0849 326.534 97.1242C321.766 97.1636 317.901 97.2944 317.902 97.4165C317.903 97.5385 321.769 97.6055 326.538 97.5662Z" fill="#263238"/>
<path d="M173.224 101.539C173.224 101.539 173.335 101.539 173.667 101.539C173.999 101.539 174.441 101.539 174.884 101.539C176.102 101.539 177.651 101.429 179.533 101.429L179.422 101.539C179.422 100.545 179.422 99.4397 179.422 98.2243C179.422 97.5614 179.422 97.009 179.422 96.346C179.533 95.6831 180.197 95.0202 180.972 94.9097C181.747 94.9097 182.411 94.9097 183.186 94.9097C184.071 95.0202 184.735 95.7936 184.735 96.6775C184.735 98.2243 184.735 99.8817 184.846 101.539L184.625 101.318C186.506 101.318 188.499 101.318 190.491 101.208L190.27 101.429C190.27 99.1083 190.27 96.6775 190.159 94.1363C190.159 93.4733 190.159 92.9209 190.159 92.258C190.159 91.7055 189.827 91.2636 189.384 90.9321C188.499 90.0482 187.724 89.2748 186.838 88.3909C185.953 87.6174 185.178 86.7335 184.403 85.9601C183.96 85.5182 183.628 85.1867 183.186 84.7447C182.743 84.3028 182.411 83.9713 181.968 83.8608C181.525 83.7503 180.972 83.8608 180.64 84.0818C180.308 84.4133 179.865 84.8552 179.533 85.1867C178.869 85.9601 178.094 86.623 177.43 87.286C176.102 88.6118 174.773 89.9377 173.777 91.0426C173.335 91.7055 173.556 92.4789 173.445 93.2524C173.445 94.0258 173.445 94.6887 173.445 95.3516C173.445 96.567 173.445 97.6719 173.445 98.6663C173.445 99.5502 173.445 100.213 173.445 100.766C173.224 101.208 173.224 101.539 173.224 101.539C173.224 101.539 173.224 101.318 173.224 100.876C173.224 100.324 173.224 99.6607 173.113 98.7768C173.113 97.7824 173.113 96.6775 173.002 95.4621C173.002 94.7992 173.002 94.1363 173.002 93.3629C173.002 93.0314 173.002 92.5894 173.002 92.258C173.002 91.816 173.113 91.3741 173.335 91.0426C174.441 89.7167 175.659 88.5014 176.987 87.1755C177.651 86.5126 178.315 85.7391 179.09 85.0762C179.422 84.7447 179.754 84.3028 180.197 83.9713C180.64 83.6399 181.304 83.5294 181.857 83.6399C182.521 83.7503 182.854 84.3028 183.296 84.6343C183.739 84.9657 184.071 85.4077 184.514 85.8496C185.289 86.623 186.174 87.3965 186.949 88.2804C187.834 89.0538 188.609 89.9377 189.495 90.8216C189.716 91.0426 189.937 91.2636 190.159 91.4845C190.38 91.816 190.491 92.1475 190.491 92.4789C190.491 93.1419 190.491 93.6943 190.491 94.3572C190.491 96.788 190.491 99.2187 190.602 101.649V101.87H190.38C188.388 101.87 186.396 101.87 184.514 101.87H184.292V101.649C184.292 99.9922 184.292 98.3348 184.292 96.788C184.292 96.1251 183.739 95.4621 183.075 95.3516C182.411 95.3516 181.636 95.3516 180.972 95.3516C180.308 95.3516 179.865 95.9041 179.754 96.4565C179.644 97.009 179.754 97.6719 179.754 98.3348C179.754 99.5502 179.754 100.655 179.754 101.649V101.76H179.644C177.762 101.76 176.102 101.76 174.995 101.76C174.552 101.76 174.109 101.76 173.777 101.76C173.335 101.539 173.224 101.539 173.224 101.539Z" fill="#263238"/>
<path d="M273.949 392.787C273.949 392.787 273.395 392.897 272.399 392.897C271.292 392.897 269.743 392.897 268.082 393.008C264.43 393.008 259.338 393.118 253.693 393.118C248.048 393.118 242.957 393.118 239.304 393.008C237.533 393.008 236.094 392.897 234.987 392.897C233.991 392.897 233.438 392.787 233.438 392.787C233.438 392.787 233.991 392.676 234.987 392.676C236.094 392.676 237.644 392.676 239.304 392.566C242.957 392.566 248.048 392.455 253.693 392.455C259.338 392.455 264.43 392.455 268.082 392.566C269.853 392.566 271.292 392.676 272.399 392.676C273.395 392.787 273.949 392.787 273.949 392.787Z" fill="#455A64"/>
<path d="M337.925 402.841C337.925 402.952 314.459 403.173 285.57 403.173C256.681 403.173 233.216 403.062 233.216 402.841C233.216 402.731 256.681 402.51 285.57 402.51C314.459 402.51 337.925 402.62 337.925 402.841Z" fill="#455A64"/>
<path d="M305.162 412.233C305.162 412.343 289.002 412.564 269.189 412.564C249.265 412.564 233.216 412.454 233.216 412.233C233.216 412.012 249.376 411.901 269.189 411.901C289.112 411.901 305.162 412.012 305.162 412.233Z" fill="#455A64"/>
<path d="M339.917 430.463L336.707 427.259L333.608 430.353V421.072H339.917V430.463ZM336.707 426.817L339.696 429.801V421.293H333.94V429.58L336.707 426.817Z" fill="#263238"/>
<path d="M253.361 429.248L252.254 428.696C251.7 429.027 251.258 429.138 250.815 429.138C249.044 429.138 247.605 427.701 247.605 425.933C247.605 424.166 249.044 422.729 250.815 422.729C252.586 422.729 254.025 424.166 254.025 425.933C254.025 426.707 253.803 427.48 253.25 428.033L253.361 429.248ZM250.704 423.061C249.044 423.061 247.716 424.387 247.716 426.044C247.716 427.701 249.044 429.027 250.704 429.027C251.147 429.027 251.59 428.917 252.143 428.585L253.029 428.917L252.807 428.033C253.361 427.48 253.582 426.707 253.582 426.044C253.693 424.387 252.364 423.061 250.704 423.061Z" fill="#263238"/>
<path d="M260.777 428.806L259.448 425.602L257.013 423.392H262.99L260.777 428.806ZM257.567 423.613L259.67 425.491L260.777 428.254L262.658 423.613H257.567Z" fill="#263238"/>
<path d="M262.905 423.457L262.784 423.271L259.537 425.38L259.657 425.566L262.905 423.457Z" fill="#263238"/>
<path d="M243.952 424.055C243.731 423.171 242.956 422.508 242.071 422.619C241.185 422.619 240.41 423.392 240.3 424.276C240.189 423.392 239.414 422.729 238.529 422.729C237.643 422.729 236.868 423.392 236.647 424.276C236.536 424.939 236.758 425.602 237.09 426.044C237.422 426.596 237.975 427.038 238.418 427.37C239.082 427.922 239.746 428.475 240.41 429.138C241.074 428.585 241.628 427.922 242.292 427.37C242.735 426.928 243.288 426.486 243.62 425.933C243.842 425.271 244.063 424.608 243.952 424.055Z" fill="#E8505B"/>
<path d="M346.669 438.75C346.669 438.75 346.669 438.419 346.669 437.756C346.669 437.093 346.669 436.098 346.669 434.773C346.669 432.121 346.669 428.143 346.669 423.061C346.669 412.896 346.558 398.09 346.558 379.639L346.78 379.86C304.166 379.86 240.632 379.97 169.793 379.97L170.125 379.639C170.125 400.19 170.125 420.188 170.125 438.861L169.793 438.529C220.708 438.529 264.983 438.64 296.418 438.64C312.135 438.64 324.753 438.75 333.387 438.75C337.704 438.75 341.024 438.75 343.349 438.75C344.455 438.75 345.341 438.75 345.894 438.75C346.337 438.75 346.669 438.75 346.669 438.75C346.669 438.75 346.337 438.75 345.784 438.75C345.23 438.75 344.345 438.75 343.238 438.75C341.024 438.75 337.704 438.75 333.387 438.75C324.753 438.75 312.246 438.75 296.528 438.861C264.983 438.861 220.708 438.971 169.682 438.971H169.35V438.64C169.35 419.967 169.35 399.969 169.35 379.418V379.086H169.682C240.521 379.086 304.055 379.197 346.669 379.197H346.89V379.418C346.89 397.98 346.78 412.785 346.78 422.95C346.78 428.033 346.78 431.9 346.78 434.552C346.78 435.877 346.78 436.872 346.78 437.535C346.669 438.419 346.669 438.75 346.669 438.75Z" fill="#263238"/>
<path d="M177.011 389.494L176.788 428.607L225.822 428.885L226.045 389.772L177.011 389.494Z" fill="#EBEBEB"/>
<path d="M226.021 389.693C226.021 389.693 225.91 389.693 225.8 389.693C225.578 389.693 225.357 389.693 225.136 389.693C224.472 389.693 223.586 389.693 222.479 389.693C220.155 389.693 216.724 389.693 212.407 389.693C203.773 389.693 191.598 389.693 177.098 389.583L177.319 389.362C177.209 400.963 177.209 414.332 177.098 428.475C177.209 428.585 176.544 427.922 176.766 428.143H176.876H177.098H177.541H178.426H180.086C181.193 428.143 182.3 428.143 183.407 428.143C185.621 428.143 187.834 428.143 190.048 428.143C194.365 428.143 198.682 428.143 202.777 428.254C210.968 428.364 218.716 428.364 225.689 428.475L225.468 428.696C225.578 416.984 225.689 407.15 225.8 400.3C225.8 396.875 225.91 394.223 225.91 392.345C225.91 391.461 225.91 390.798 225.91 390.246C226.021 390.025 226.021 389.693 226.021 389.693C226.021 389.693 226.021 389.914 226.021 390.356C226.021 390.798 226.021 391.571 226.021 392.455C226.021 394.334 226.021 396.985 226.021 400.3C226.021 407.15 226.021 416.984 226.021 428.806V429.027H225.8C218.827 429.027 211.079 428.917 202.888 428.917C198.792 428.917 194.476 428.917 190.159 428.806C187.945 428.806 185.731 428.806 183.518 428.806C182.411 428.806 181.304 428.806 180.197 428.806H178.537H177.651H177.209H176.987H176.876C177.098 429.027 176.544 428.475 176.544 428.475C176.655 414.332 176.766 400.963 176.766 389.362V389.141H176.987C191.598 389.251 203.884 389.362 212.517 389.472C216.834 389.472 220.155 389.583 222.479 389.583C223.586 389.583 224.472 389.583 225.136 389.583C225.357 389.583 225.578 389.583 225.8 389.583C225.91 389.693 226.021 389.693 226.021 389.693Z" fill="#263238"/>
<path d="M178.442 426.165L224.045 426.424L224.24 392.173L178.637 391.914L178.442 426.165Z" fill="#E0E0E0"/>
<path d="M178.426 426.154L194.476 404.941L204.327 418.31L210.968 411.238L224.029 426.375L178.426 426.154Z" fill="#F5F5F5"/>
<path d="M204.991 405.935C206.947 405.935 208.533 404.352 208.533 402.399C208.533 400.447 206.947 398.864 204.991 398.864C203.035 398.864 201.449 400.447 201.449 402.399C201.449 404.352 203.035 405.935 204.991 405.935Z" fill="#F5F5F5"/>
<path d="M259.67 135.901C259.67 135.901 259.448 135.901 259.116 136.011C258.674 136.011 258.231 136.011 257.567 136.011C256.128 136.011 254.357 136.011 252.032 136.122C247.384 136.122 240.964 136.232 233.769 136.232C226.685 136.232 220.155 136.232 215.506 136.122C213.292 136.122 211.411 136.011 209.972 136.011C209.418 136.011 208.865 136.011 208.422 136.011C208.09 136.011 207.869 136.011 207.869 135.901C207.869 135.901 208.09 135.901 208.422 135.79C208.865 135.79 209.308 135.79 209.972 135.79C211.411 135.79 213.182 135.79 215.506 135.68C220.155 135.68 226.575 135.569 233.769 135.569C240.853 135.569 247.273 135.569 252.032 135.68C254.246 135.68 256.128 135.79 257.567 135.79C258.12 135.79 258.674 135.79 259.116 135.79C259.448 135.901 259.67 135.901 259.67 135.901Z" fill="#263238"/>
<path d="M332.058 352.238L327.188 347.376L322.539 351.906V338.095H331.948L332.058 352.238ZM327.299 346.713L327.41 346.824L331.616 351.133V338.537H322.982V350.912L327.299 346.713Z" fill="#263238"/>
<path d="M209.418 350.691L207.204 349.696C206.098 350.249 205.101 350.58 204.327 350.58C200.895 350.58 198.018 347.818 198.018 344.393C198.018 340.968 200.785 338.095 204.216 338.095C207.647 338.095 210.525 340.857 210.525 344.282C210.525 345.829 209.972 347.266 208.975 348.481L209.418 350.691ZM204.105 338.537C200.895 338.537 198.239 341.189 198.35 344.393C198.35 347.597 201.006 350.249 204.216 350.138C204.991 350.138 205.987 349.807 206.983 349.254H207.094L208.754 350.028L208.422 348.37L208.533 348.26C209.529 347.155 210.082 345.719 210.082 344.282C209.972 341.078 207.315 338.537 204.105 338.537Z" fill="#263238"/>
<path d="M223.918 349.807L221.372 343.509L216.502 339.089L228.235 338.979L223.918 349.807ZM217.609 339.421L221.704 343.178L223.918 348.591L227.571 339.31L217.609 339.421Z" fill="#263238"/>
<path d="M228.212 339.326L227.971 338.956L221.569 343.113L221.81 343.484L228.212 339.326Z" fill="#263238"/>
<path d="M190.823 340.415C190.491 338.758 188.831 337.432 187.06 337.543C185.399 337.653 183.85 338.979 183.628 340.747C183.407 339.089 181.857 337.653 180.086 337.653C178.426 337.653 176.766 338.979 176.434 340.636C176.212 341.852 176.655 343.177 177.319 344.172C177.983 345.166 178.98 346.05 179.865 346.824C181.193 347.928 182.411 349.033 183.739 350.249C185.067 349.033 186.174 347.928 187.392 346.824C188.277 345.94 189.273 345.166 189.937 344.061C190.712 342.846 191.155 341.631 190.823 340.415Z" fill="#55BC7E"/>
<path d="M189.827 143.856C194.228 143.856 197.796 140.294 197.796 135.901C197.796 131.507 194.228 127.946 189.827 127.946C185.425 127.946 181.857 131.507 181.857 135.901C181.857 140.294 185.425 143.856 189.827 143.856Z" fill="#EBEBEB"/>
<path d="M329.07 306.495C329.07 306.606 295.532 306.827 254.246 306.827C212.96 306.827 179.422 306.716 179.422 306.495C179.422 306.274 212.96 306.164 254.246 306.164C295.532 306.164 329.07 306.274 329.07 306.495Z" fill="#455A64"/>
<path d="M329.07 294.01C329.07 294.121 295.532 294.342 254.246 294.342C212.96 294.342 179.422 294.231 179.422 294.01C179.422 293.789 212.96 293.679 254.246 293.679C295.532 293.789 329.07 293.9 329.07 294.01Z" fill="#455A64"/>
<path d="M260.887 319.091C260.887 319.201 242.624 319.422 220.155 319.422C197.685 319.422 179.422 319.312 179.422 319.091C179.422 318.87 197.685 318.76 220.155 318.76C242.624 318.76 260.887 318.87 260.887 319.091Z" fill="#455A64"/>
<path d="M247.703 457.759C249.475 457.768 250.919 456.34 250.928 454.57C250.936 452.801 249.506 451.36 247.733 451.351C245.96 451.343 244.516 452.77 244.508 454.54C244.499 456.31 245.93 457.751 247.703 457.759Z" fill="#263238"/>
<path d="M257.554 457.759C259.327 457.768 260.771 456.34 260.779 454.57C260.787 452.801 259.357 451.36 257.584 451.351C255.812 451.343 254.368 452.77 254.359 454.54C254.351 456.31 255.781 457.751 257.554 457.759Z" fill="#263238"/>
<path d="M267.406 457.87C269.179 457.878 270.622 456.451 270.631 454.681C270.639 452.911 269.209 451.47 267.436 451.462C265.663 451.453 264.219 452.881 264.211 454.651C264.203 456.42 265.633 457.862 267.406 457.87Z" fill="#263238"/>
<path d="M170.702 259.717L347.69 259.666L347.658 151.608L170.671 151.659L170.702 259.717Z" fill="#E0E0E0"/>
<path d="M187.06 259.759L237.754 192.029L269.189 234.346L290.44 211.696L332.28 259.759H187.06Z" fill="#F5F5F5"/>
<path d="M271.07 195.012C277.367 195.012 282.471 189.917 282.471 183.632C282.471 177.347 277.367 172.252 271.07 172.252C264.774 172.252 259.67 177.347 259.67 183.632C259.67 189.917 264.774 195.012 271.07 195.012Z" fill="#F5F5F5"/>
<path d="M347.223 360.193C347.223 357.872 347.112 260.311 347.001 115.792L347.223 116.013C293.872 116.013 233.659 116.013 170.235 116.013L170.567 115.682C170.567 207.056 170.567 291.69 170.567 360.082L170.346 359.861C277.49 360.082 345.23 360.193 347.223 360.193C345.341 360.193 277.601 360.303 170.235 360.414H170.014V360.193C170.014 291.8 170.014 207.166 170.014 115.792V115.461H170.346C233.769 115.461 293.982 115.461 347.333 115.461H347.555V115.682C347.555 188.052 347.444 249.152 347.444 292.242C347.444 313.788 347.444 330.692 347.333 342.404C347.333 348.149 347.333 352.679 347.333 355.663C347.333 357.21 347.333 358.314 347.333 359.088C347.223 359.751 347.223 360.193 347.223 360.193Z" fill="#263238"/>
<path d="M263.986 390.467L267.861 377.318C268.525 374.446 269.41 371.131 270.628 367.264C271.735 363.839 274.502 360.193 277.158 357.541C281.143 353.453 283.025 353.453 285.792 351.354C286.013 351.243 286.345 351.022 286.566 350.801C287.12 350.47 287.563 350.138 287.895 349.696C290.219 347.155 288.005 343.288 283.246 343.73C279.704 344.061 273.948 345.056 264.54 354.668C264.429 354.779 264.319 354.889 264.208 355.11C259.227 361.519 254.689 343.288 253.803 336.438C253.25 332.018 248.49 329.366 244.174 330.913L221.262 341.631C219.38 340.968 217.166 341.078 214.62 341.852C211.3 343.067 209.418 346.603 210.304 349.917L219.601 386.931L192.262 477.311H250.926L263.986 390.467Z" fill="#FFBE9D"/>
<path d="M309.146 307.379L290.994 342.846L281.918 340.305L236.315 377.318C232.441 380.523 226.796 379.97 223.475 376.214L206.098 356.105C206.098 356.105 241.074 341.078 247.605 328.593C254.135 316.108 246.609 313.346 246.609 313.346L263.101 294.673L309.146 307.379Z" fill="#55BC7E"/>
<path d="M285.57 234.899C285.57 234.899 259.006 229.043 221.594 193.134C184.182 157.225 166.583 109.605 162.045 109.826C157.506 110.047 137.472 100.766 99.5069 183.301C61.5415 265.835 76.4841 284.95 84.0108 284.84C91.5375 284.729 142.896 270.366 174.995 274.012C207.094 277.658 248.269 294.342 248.269 294.342L285.57 234.899Z" fill="#55BC7E"/>
<path d="M342.02 279.868L332.944 297.104L328.849 304.838C323.314 315.445 310.364 319.754 299.517 314.782L242.624 295.004L275.83 219.43L332.723 249.704C343.681 255.339 347.776 268.929 342.02 279.868Z" fill="#55BC7E"/>
<g opacity="0.4">
<path opacity="0.4" d="M342.02 279.426L332.944 296.662L328.849 304.396C323.314 315.003 310.364 319.312 299.517 314.34L242.624 294.563L275.83 218.988L332.723 249.262C343.681 255.008 347.776 268.487 342.02 279.426Z" fill="black"/>
</g>
<path d="M157.054 111.852C147.192 107.406 122.799 140.05 102.569 184.764C82.3396 229.478 73.9345 269.33 83.7959 273.776C93.6573 278.222 118.051 245.577 138.281 200.863C158.51 156.149 166.915 116.297 157.054 111.852Z" fill="#55BC7E"/>
<g opacity="0.5">
<path opacity="0.5" d="M154.206 115.969C144.345 111.524 119.951 144.168 99.7214 188.882C79.4917 233.596 71.0866 273.448 80.948 277.894C90.8094 282.339 115.203 249.695 135.433 204.981C155.662 160.267 164.067 120.415 154.206 115.969Z" fill="black"/>
</g>
<path d="M346.89 304.727L331.505 299.866L341.024 281.746L352.646 288.928L346.89 304.727Z" fill="#55BC7E"/>
<g opacity="0.6">
<path opacity="0.6" d="M341.024 281.746L331.505 299.866L334.715 300.86L342.463 282.63L341.024 281.746Z" fill="black"/>
</g>
<path d="M330.398 285.944C330.177 286.497 322.429 283.403 313.242 279.315C303.944 275.117 296.639 271.36 296.86 270.808C297.082 270.255 304.83 273.349 314.017 277.437C323.314 281.635 330.62 285.392 330.398 285.944Z" fill="#55BC7E"/>
<path d="M335.158 275.117C334.936 275.558 327.963 272.686 319.551 268.598C311.139 264.51 304.608 260.753 304.83 260.311C305.051 259.869 312.024 262.742 320.436 266.83C328.849 270.918 335.379 274.564 335.158 275.117Z" fill="#55BC7E"/>
<path d="M324.421 297.214C324.31 297.435 322.539 297.104 319.551 296.109C318.112 295.667 316.341 295.115 314.459 294.452C312.578 293.789 310.585 292.795 308.482 291.8C300.07 287.933 293.54 284.066 293.761 283.624C293.982 283.072 300.956 286.165 309.257 290.032C311.36 291.027 313.353 292.021 315.124 292.795C317.005 293.568 318.665 294.231 319.994 294.894C322.872 296.109 324.532 296.993 324.421 297.214Z" fill="#55BC7E"/>
<path d="M143.892 174.793C143.892 174.793 120.759 160.54 108.14 191.698C95.5222 222.855 119.762 227.938 119.762 227.938C129.724 212.58 137.804 194.902 143.892 174.793Z" fill="#55BC7E"/>
<g opacity="0.5">
<path opacity="0.5" d="M168.464 137.669C168.575 137.669 168.243 139.768 167.579 143.635C166.804 147.392 165.808 152.916 164.369 159.766C163.373 163.081 162.377 166.727 161.159 170.705C160.606 172.694 159.942 174.682 159.388 176.782C159.056 177.776 158.724 178.881 158.392 179.986C158.06 181.091 157.617 182.085 157.174 183.19C155.514 187.499 153.743 191.919 151.972 196.67C151.529 197.885 151.087 198.99 150.644 200.205C150.201 201.421 149.537 202.526 148.984 203.741C147.877 206.061 146.659 208.381 145.552 210.812C144.335 213.243 143.228 215.563 142.121 217.883C141.568 218.988 141.014 220.204 140.35 221.309C139.686 222.413 139.022 223.518 138.468 224.513C135.923 228.822 133.488 232.91 131.163 236.887C130.61 237.882 130.056 238.876 129.392 239.76C128.728 240.644 128.064 241.528 127.51 242.412C126.293 244.18 125.075 245.948 123.858 247.605C121.533 250.92 119.32 254.013 117.217 256.886C112.789 262.189 109.137 266.388 106.591 269.371C104.045 272.244 102.606 273.901 102.495 273.791C102.385 273.68 103.602 272.023 106.037 268.929C108.472 265.835 112.014 261.416 116.22 256.002C118.213 253.129 120.316 250.036 122.64 246.721C123.747 245.064 124.965 243.296 126.182 241.528C126.846 240.644 127.4 239.76 128.064 238.876C128.617 237.992 129.171 236.998 129.835 236.004C132.159 232.026 134.594 227.938 137.029 223.629C137.694 222.524 138.247 221.53 138.911 220.425C139.575 219.32 140.018 218.104 140.571 217C141.678 214.679 142.785 212.359 144.003 209.928C145.11 207.608 146.327 205.177 147.434 202.967C147.987 201.752 148.652 200.647 149.094 199.542C149.537 198.327 149.98 197.222 150.422 196.007C152.304 191.366 154.075 186.947 155.735 182.748C156.178 181.643 156.621 180.649 156.953 179.654C157.285 178.55 157.617 177.555 157.949 176.561C158.613 174.461 159.167 172.473 159.831 170.594C161.048 166.727 162.155 163.081 163.262 159.877C164.812 153.248 166.14 147.834 167.136 143.967C167.69 139.768 168.243 137.669 168.464 137.669Z" fill="black"/>
</g>
<g opacity="0.4">
<path opacity="0.4" d="M211.632 353.674C213.735 357.541 215.838 361.408 219.048 364.391C222.147 367.485 226.464 369.584 230.781 369.142C235.097 368.7 239.193 365.054 239.303 360.745C241.407 362.292 244.616 361.408 246.277 359.53C247.937 357.651 248.601 354.889 248.823 352.238C251.7 353.895 255.574 352.569 257.456 349.917C259.338 347.266 259.448 343.619 258.563 340.415C257.677 337.211 255.796 334.449 254.025 331.687C256.238 331.908 258.563 332.018 260.445 331.024C262.437 330.029 263.765 327.488 262.548 325.61C261.883 324.505 260.555 323.952 259.338 323.621C255.906 322.516 253.471 321.743 249.929 322.074C249.155 322.074 251.368 331.466 229.01 344.282C215.838 351.906 211.632 353.674 211.632 353.674Z" fill="black"/>
</g>
<path d="M261.883 367.154C261.883 367.264 260.334 366.933 258.009 367.043C255.574 367.043 252.254 367.595 248.933 369.253C245.613 370.8 243.067 373.12 241.628 374.998C240.078 376.877 239.414 378.202 239.303 378.092C239.303 378.092 239.414 377.76 239.746 377.097C240.078 376.545 240.632 375.661 241.296 374.667C242.735 372.788 245.281 370.358 248.712 368.7C252.143 367.043 255.574 366.601 258.009 366.601C259.227 366.601 260.223 366.712 260.887 366.822C261.551 367.043 261.883 367.154 261.883 367.154Z" fill="#EB996E"/>
<path d="M213.071 347.708C216.613 351.133 219.159 355 222.922 358.425C224.582 359.972 227.349 362.955 229.563 363.397C231.888 363.839 233.326 363.507 234.212 361.298C234.987 359.53 233.658 357.21 232.662 355.773C230.227 352.017 228.014 349.033 226.132 346.161C225.246 344.835 226.353 344.503 226.796 345.166C228.567 346.934 231.113 348.481 232.662 350.47C234.765 353.121 235.208 356.657 240.742 355.552C241.517 355.442 242.181 355.11 242.845 354.668C244.948 353.121 245.059 350.249 244.174 348.039C243.51 346.271 242.292 344.835 241.074 343.398C243.399 346.05 246.055 348.923 249.819 349.144C252.032 349.365 254.246 348.26 255.132 346.271C256.238 343.73 254.689 341.299 253.029 339.31C250.151 335.775 247.052 332.571 243.62 329.698C242.292 328.593 240.742 328.041 239.082 328.041C237.09 328.041 234.655 328.372 233.548 330.029C231.334 333.123 231.998 335.775 231.998 335.775C231.998 335.775 227.128 333.344 223.254 335.885C219.38 338.426 218.384 342.956 218.384 342.956L213.071 347.708Z" fill="#FFBE9D"/>
<path d="M239.082 327.046C237.533 325.499 237.2 322.737 238.418 320.417C239.193 318.76 240.3 317.213 241.407 316.881C246.055 315.334 266.311 318.87 266.09 323.29C265.868 327.93 264.429 329.919 253.471 328.372C251.59 328.041 248.49 327.709 248.49 327.709L245.834 331.687L239.082 327.046Z" fill="#FFBE9D"/>
<path d="M242.624 345.829C242.513 345.94 240.964 342.736 237.754 339.973C234.655 337.101 231.334 335.885 231.445 335.775C231.445 335.664 232.33 335.885 233.548 336.548C234.876 337.101 236.536 338.205 238.086 339.642C239.636 341.078 240.853 342.625 241.628 343.84C242.403 344.945 242.735 345.829 242.624 345.829Z" fill="#EB996E"/>
<path d="M246.055 332.018C245.945 332.129 244.616 331.024 242.845 329.919C241.96 329.366 241.074 328.924 240.521 328.593C239.857 328.262 239.525 328.262 239.525 328.151C239.525 328.041 239.968 328.041 240.742 328.262C241.407 328.483 242.403 328.924 243.288 329.477C244.948 330.582 246.166 331.908 246.055 332.018Z" fill="#EB996E"/>
<path d="M249.487 327.82C249.487 327.93 247.716 328.041 245.613 327.378C244.506 327.046 243.62 326.494 243.067 326.052C242.513 325.61 242.292 325.168 242.292 325.168C242.403 325.057 243.62 326.273 245.723 326.825C247.716 327.488 249.487 327.709 249.487 327.82Z" fill="#EB996E"/>
<path d="M229.784 351.354C229.674 351.354 229.01 350.47 227.903 348.923C226.796 347.376 225.468 345.166 223.143 343.509C220.93 341.852 218.273 341.52 216.391 341.741C214.62 341.962 213.624 342.736 213.514 342.625C213.514 342.625 213.735 342.404 214.178 342.073C214.62 341.741 215.395 341.52 216.281 341.299C218.162 340.968 221.04 341.299 223.365 342.956C225.8 344.724 227.128 347.045 228.124 348.591C229.231 350.359 229.784 351.354 229.784 351.354Z" fill="#EB996E"/>
<path d="M237.002 397.296C241.62 396.794 245.348 396.24 245.329 396.058C245.309 395.876 241.549 396.135 236.93 396.637C232.312 397.138 228.584 397.692 228.604 397.874C228.623 398.056 232.383 397.797 237.002 397.296Z" fill="#EB996E"/>
<path d="M419.611 28.727L420.939 30.9368L423.153 32.2627L420.939 33.478L419.611 35.6878L418.394 33.478L416.069 32.2627L418.394 30.9368L419.611 28.727Z" fill="#55BC7E"/>
<path d="M445.733 85.1867L447.061 87.5069L449.275 88.7223L447.061 89.9377L445.733 92.2579L444.516 89.9377L442.191 88.7223L444.516 87.5069L445.733 85.1867Z" fill="#55BC7E"/>
<path d="M27.0074 236.004L28.225 238.324L30.5494 239.539L28.225 240.865L27.0074 243.075L25.7899 240.865L23.4655 239.539L25.7899 238.324L27.0074 236.004Z" fill="#55BC7E"/>
<path d="M385.409 42.7591L388.287 47.952L393.489 50.8247L388.287 53.8079L385.409 59.0009L382.531 53.8079L377.218 50.8247L382.531 47.952L385.409 42.7591Z" fill="#55BC7E"/>
<path d="M50.4729 200.205L53.3507 205.509L58.553 208.381L53.3507 211.254L50.4729 216.447L47.5951 211.254L42.2821 208.381L47.5951 205.509L50.4729 200.205Z" fill="#55BC7E"/>
<path d="M452.928 325.61L455.806 330.803L461.008 333.675L455.806 336.548L452.928 341.852L450.05 336.548L444.737 333.675L450.05 330.803L452.928 325.61Z" fill="#55BC7E"/>
</g>
<defs>
<clipPath id="clip0_7_2">
<rect width="492" height="493" fill="white"/>
</clipPath>
</defs>
</svg>
