<svg width="98" height="98" viewBox="0 0 98 98" fill="none" xmlns="http://www.w3.org/2000/svg">
<path fill-rule="evenodd" clip-rule="evenodd" d="M75.2225 43.7538C75.1443 35.8837 72.1027 28.0377 66.0979 22.0328C53.9296 9.86453 34.2009 9.86453 22.0326 22.0328C9.86434 34.2011 9.86434 53.9298 22.0326 66.0981C28.5484 72.6138 37.232 75.6406 45.7618 75.1783L75.2997 75.2999L75.2997 43.6766L75.2225 43.7538Z" fill="url(#paint0_linear_7_4007)"/>
<path d="M50.4545 42.4545V37.2732C50.4545 34.3655 47.9059 32 44.7727 32C41.6395 32 39.0909 34.3655 39.0909 37.2732V38.7368C39.0909 38.9882 39.2945 39.1914 39.5455 39.1914C39.7964 39.1914 40 38.9882 40 38.7368V37.2732C40 34.8668 42.1409 32.9091 44.7727 32.9091C47.4045 32.9091 49.5455 34.8668 49.5455 37.2732V42.4545H35V54.2727V57.9091H55V54.2727V42.4545H50.4545ZM54.0909 57H35.9091V55.1818H54.0909V57ZM35.9091 54.2727V43.3636H54.0909V54.2727H35.9091Z" fill="white"/>
<path d="M45 46.0908C43.9973 46.0908 43.1818 46.9063 43.1818 47.909V50.6363C43.1818 51.639 43.9973 52.4545 45 52.4545C46.0027 52.4545 46.8182 51.639 46.8182 50.6363V47.909C46.8182 46.9063 46.0027 46.0908 45 46.0908ZM45.9091 50.6363C45.9091 51.1376 45.5014 51.5454 45 51.5454C44.4986 51.5454 44.0909 51.1376 44.0909 50.6363V47.909C44.0909 47.4076 44.4986 46.9999 45 46.9999C45.5014 46.9999 45.9091 47.4076 45.9091 47.909V50.6363Z" fill="white"/>
<defs>
<linearGradient id="paint0_linear_7_4007" x1="22.0326" y1="22.0328" x2="75.2997" y2="75.2999" gradientUnits="userSpaceOnUse">
<stop stop-color="#56BD7F"/>
<stop offset="1" stop-color="#82E2A8"/>
</linearGradient>
</defs>
</svg>
