<svg width="98" height="98" viewBox="0 0 98 98" fill="none" xmlns="http://www.w3.org/2000/svg">
<path fill-rule="evenodd" clip-rule="evenodd" d="M75.2225 43.7538C75.1443 35.8837 72.1027 28.0377 66.0979 22.0328C53.9296 9.86453 34.2009 9.86453 22.0326 22.0328C9.86434 34.2011 9.86434 53.9298 22.0326 66.0981C28.5484 72.6138 37.232 75.6406 45.7618 75.1783L75.2997 75.2999L75.2997 43.6766L75.2225 43.7538Z" fill="url(#paint0_linear_7_4006)"/>
<path d="M37.6939 39.9798H43.7959C44.0555 39.9798 44.2653 39.77 44.2653 39.5104C44.2653 39.2508 44.0555 39.041 43.7959 39.041H37.6939C37.4343 39.041 37.2245 39.2508 37.2245 39.5104C37.2245 39.77 37.4343 39.9798 37.6939 39.9798Z" fill="white"/>
<path d="M37.6939 54.5306H43.7959C44.0555 54.5306 44.2653 54.3208 44.2653 54.0612C44.2653 53.8016 44.0555 53.5918 43.7959 53.5918H37.6939C37.4343 53.5918 37.2245 53.8016 37.2245 54.0612C37.2245 54.3208 37.4343 54.5306 37.6939 54.5306Z" fill="white"/>
<path d="M37.6939 42.7957H51.3061C51.5657 42.7957 51.7755 42.5859 51.7755 42.3263C51.7755 42.0668 51.5657 41.8569 51.3061 41.8569H37.6939C37.4343 41.8569 37.2245 42.0668 37.2245 42.3263C37.2245 42.5859 37.4343 42.7957 37.6939 42.7957Z" fill="white"/>
<path d="M37.6939 48.4285H51.3061C51.5657 48.4285 51.7755 48.2187 51.7755 47.9591C51.7755 47.6996 51.5657 47.4897 51.3061 47.4897H37.6939C37.4343 47.4897 37.2245 47.6996 37.2245 47.9591C37.2245 48.2187 37.4343 48.4285 37.6939 48.4285Z" fill="white"/>
<path d="M37.6939 51.7142H51.3061C51.5657 51.7142 51.7755 51.5043 51.7755 51.2448C51.7755 50.9852 51.5657 50.7754 51.3061 50.7754H37.6939C37.4343 50.7754 37.2245 50.9852 37.2245 51.2448C37.2245 51.5043 37.4343 51.7142 37.6939 51.7142Z" fill="white"/>
<path d="M37.6939 45.6121H44.2653C44.5249 45.6121 44.7347 45.4023 44.7347 45.1427C44.7347 44.8832 44.5249 44.6733 44.2653 44.6733H37.6939C37.4343 44.6733 37.2245 44.8832 37.2245 45.1427C37.2245 45.4023 37.4343 45.6121 37.6939 45.6121Z" fill="white"/>
<path d="M51.3061 44.6733H48.0204C47.7608 44.6733 47.551 44.8832 47.551 45.1427C47.551 45.4023 47.7608 45.6121 48.0204 45.6121H51.3061C51.5657 45.6121 51.7755 45.4023 51.7755 45.1427C51.7755 44.8832 51.5657 44.6733 51.3061 44.6733Z" fill="white"/>
<path d="M45.8096 44.8098C45.7204 44.8985 45.6735 45.0158 45.6735 45.143C45.6735 45.2651 45.7246 45.3871 45.8096 45.4763C45.8983 45.565 46.0157 45.6124 46.1429 45.6124C46.2696 45.6124 46.3869 45.5608 46.4761 45.4763C46.5606 45.3871 46.6122 45.2698 46.6122 45.143C46.6122 45.0158 46.5648 44.8985 46.4761 44.8098C46.2978 44.6361 45.988 44.6314 45.8096 44.8098Z" fill="white"/>
<path d="M49.898 32.9388H47.0816V32.4694C47.0816 32.2098 46.8718 32 46.6122 32H42.3878C42.1282 32 41.9184 32.2098 41.9184 32.4694V32.9388H39.102H33V60.1633H56V32.9388H49.898ZM46.1429 32.9388V33.4082V34.3469H42.8571V33.4082V32.9388H46.1429ZM41.9184 33.8776V34.8163V35.2857H42.3878H46.6122H47.0816V34.8163V33.8776H49.4286V34.3469V35.7551H39.5714V34.3469V33.8776H41.9184ZM38.6327 36.2245V36.6939H39.102H49.898H50.3673V36.2245V35.2857H53.6531V57.8163H35.3469V35.2857H38.6327V36.2245ZM55.0612 59.2245H33.9388V33.8776H38.6327V34.3469H34.4082V58.7551H54.5918V34.3469H50.3673V33.8776H55.0612V59.2245Z" fill="white"/>
<defs>
<linearGradient id="paint0_linear_7_4006" x1="22.0326" y1="22.0328" x2="75.2997" y2="75.2999" gradientUnits="userSpaceOnUse">
<stop stop-color="#56BD7F"/>
<stop offset="1" stop-color="#82E2A8"/>
</linearGradient>
</defs>
</svg>
